<svg width="218"
     height="171"
     viewBox="0 0 218 171"
     fill="none"
     xmlns="http://www.w3.org/2000/svg">
<path id='my-signature'
      d="M2 73C7.56775 68.6502 12.0608 63.3195 17.7778 59C25.2519 53.3529 32.3732 52.6428 40.9444 50.5C49.0989 48.4614 60.2016 53.6898 64.2222 61C69.7459 71.043 72.7779 78.5007 74.0556 90C75.5466 103.42 73.4626 115.797 62.9444 125C51.5689 134.954 37.3584 133.488 24 129.778C17.5802 127.994 13.1209 120.167 17 113.778C22.4988 104.721 25.3585 94.9273 36.3889 90.6111C43.2676 87.9195 48.984 87 56.4444 87C70.6201 87 71 109.352 71 119.222C71 124.383 72.9711 134.127 79.5 130.5C81.6206 129.322 85.0173 129.538 86.7778 127.778C90.6858 123.87 91.1615 114.001 92.5 108.944C98.5796 85.977 101.46 62.4122 105.222 39C105.706 35.9882 102.464 -0.813549 97 2.22223C92.5024 4.72091 92.5225 14.6973 91.7778 19C90.5803 25.9187 91 32.9831 91 40C91 53.8855 88.578 70.0586 91.5 83.5C93.7453 93.8283 90.8121 104.547 94.2222 114.778C95.39 118.281 96.3552 122.355 99 125C102.733 128.733 103.934 124.585 107.5 123C115.675 119.367 119.63 112.148 121.778 103.556C122.976 98.7616 124.37 81 116 81C107.7 81 108 95.5419 108 101.056C108 105.194 107.897 109.239 109.778 113C111.458 116.36 114.214 116.267 116 118.5C119.489 122.861 127.412 123.588 131 120C140.316 110.684 139.572 100.911 141.778 88.7778C142.65 83.9804 141.73 78.8549 142 74C142.082 72.5224 145.818 83.5498 146.5 85.4445C150.761 97.2798 157.509 110.509 166.444 119.444C170.785 123.785 174.338 127.361 179.944 130.444C187.901 134.821 198.598 130.052 205.556 125.778C213.512 120.89 217.673 115.369 215.444 105.5C213.444 96.6427 210.356 88.1671 207 79.7778C203.467 70.9441 201.947 67 192.5 67C186.143 67 179.273 71.1944 177 77.4445C173.751 86.3788 171.543 95.3958 168.778 104.444C166.268 112.657 159.468 121.223 154.444 128.056C140.514 147.001 121.839 160.716 100 169"
      stroke="white"
      stroke-width="3"
      stroke-linecap="round"/>
</svg>
