<svg width="66"
     height="51"
     viewBox="0 0 66 51"
     fill="none"
     xmlns="http://www.w3.org/2000/svg">
<path id='hand-drawn-arrow'
      d="M63.5275 18.4005C63.5275 19.9435 63.4168 21.4987 63.4168 23.0245C63.4168 23.7061 63.324 24.3614 63.3061 25.0414C63.2813 25.984 63.3061 26.8929 63.3061 27.8331C63.3061 29.5655 63.9205 31.419 63.6136 33.1458C63.5177 33.6847 63.4168 34.3606 63.4168 34.8921C63.4168 35.4669 62.3721 35.5219 61.8918 35.5562C61.4943 35.5846 61.0472 35.6326 60.6497 35.6915C60.1126 35.7711 59.6384 35.6669 59.1002 35.6669C57.7584 35.6669 56.4714 35.5258 55.1402 35.3594C53.9351 35.2088 52.5662 35.2241 51.3525 35.2241C49.9117 35.2241 48.4648 35.206 47.0359 35.0274C43.9862 34.6462 40.8978 34.7068 37.8493 34.3633C36.8308 34.2485 35.6363 34.3256 34.6395 34.5355C34.1385 34.6409 33.4612 34.4761 32.9547 34.4248C32.2223 34.3506 31.5076 34.3387 30.7718 34.3387C29.7458 34.3387 28.7409 34.3096 27.7219 34.2342C27.0539 34.1847 26.3586 34.1781 25.6988 34.0681C25.4546 34.0274 25.5923 34.4461 25.5574 34.6031C25.2925 35.7951 25.6617 37.1489 25.5697 38.3909C25.4731 39.6954 25.4129 41.0065 25.336 42.3139C25.2726 43.3927 24.9028 44.5287 25.1762 45.6221C25.3965 46.5036 25.2913 48.0884 24.8441 48.8934C24.7072 49.1398 23.5179 48.2751 23.2454 48.0571C22.4742 47.4401 21.6292 46.9194 20.8596 46.2923C19.6748 45.3269 19.0805 44.0572 18.2462 42.8059C17.117 41.112 16.0449 39.3566 14.8274 37.7206C13.5085 35.9484 12.331 34.1027 11.2302 32.1865C10.4845 30.8884 9.84143 29.5398 9.07194 28.2573C7.57773 25.767 5.16788 24.0499 3.11972 22.0776C2.77128 21.7421 2.05367 21.5569 2.78767 21.3028C3.3753 21.0994 3.97409 20.7678 4.53398 20.5034C6.34889 19.6464 8.2014 18.4766 9.73604 17.2076C10.5719 16.5164 11.6366 16.0199 12.5277 15.3875C13.6268 14.6075 14.7975 13.8757 15.8235 13.0017C16.3673 12.5385 16.8797 11.9677 17.3485 11.4275C17.8088 10.8972 18.4024 10.5 18.7874 9.90258C19.159 9.32587 19.6375 8.84961 19.9803 8.24235C20.2198 7.81809 20.3187 7.32507 20.5829 6.91416C21.134 6.05681 21.7472 5.17504 22.2431 4.28239C22.5341 3.75862 23.1205 3.33908 23.4606 2.81893C23.5197 2.72851 23.8315 1.69644 23.9894 1.82279C24.3787 2.13425 24.3257 3.11669 24.4321 3.56911C24.6177 4.35774 24.3461 5.20768 24.3461 6.00411C24.3461 6.93101 24.5682 7.83474 24.7027 8.74656C24.8171 9.52191 25.0101 10.1941 25.0101 10.9848C25.0101 11.8107 24.9799 12.6031 24.9056 13.4198C24.7991 14.5911 25.0101 15.7681 25.0101 16.9063C25.0101 17.3242 25.1332 17.7699 25.5082 17.8532C26.1594 17.9979 26.8441 17.9302 27.5005 18.1299C28.5428 18.4472 29.6191 18.7325 30.7164 18.7325C32.0149 18.7325 33.2056 19.0627 34.5226 18.8432C35.6861 18.6493 36.8981 18.5794 38.0768 18.5173C38.9263 18.4726 39.764 18.4005 40.6163 18.4005C41.4878 18.4005 42.3423 18.5753 43.2112 18.6157C44.6149 18.681 46.0113 18.4005 47.4171 18.4005C48.6581 18.4005 49.9091 18.2898 51.1372 18.2898C52.2619 18.2898 53.3678 18.0684 54.5007 18.0684C55.6752 18.0684 56.8844 17.9545 58.0487 17.8532C58.6845 17.7979 59.3471 17.8471 59.9856 17.8471C60.4934 17.8471 60.9735 17.6257 61.486 17.6257C61.8634 17.6257 63.5981 17.4349 63.7488 17.7364"
      stroke="white"
      stroke-width="3"
      stroke-linecap="round"/>
</svg>
